<svg width="250" height="125" viewBox="0 0 250 125" fill="none" xmlns="http://www.w3.org/2000/svg">
<path d="M140.578 59.8127C141.795 60.152 142.753 60.7706 143.451 61.6685C144.15 62.5465 144.499 63.664 144.499 65.0209C144.499 66.8367 143.81 68.2336 142.433 69.2113C141.076 70.1891 139.091 70.678 136.477 70.678H126.48V49.7257H135.878C138.273 49.7257 140.119 50.2046 141.416 51.1624C142.733 52.1203 143.391 53.4472 143.391 55.1434C143.391 56.2409 143.132 57.1887 142.613 57.9869C142.114 58.7851 141.436 59.3937 140.578 59.8127ZM129.473 52.1502V58.8549H135.609C137.145 58.8549 138.323 58.5756 139.141 58.0168C139.979 57.4381 140.398 56.6001 140.398 55.5026C140.398 54.4051 139.979 53.5769 139.141 53.0182C138.323 52.4395 137.145 52.1502 135.609 52.1502H129.473ZM136.357 68.2535C138.053 68.2535 139.33 67.9742 140.189 67.4154C141.047 66.8567 141.476 65.9787 141.476 64.7814C141.476 62.4467 139.769 61.2794 136.357 61.2794H129.473V68.2535H136.357Z" fill="#333333"/>
<path d="M163.501 54.8141V70.678H160.777V68.2834C160.198 69.1016 159.43 69.7401 158.472 70.1991C157.534 70.6381 156.506 70.8576 155.389 70.8576C153.274 70.8576 151.608 70.2789 150.39 69.1215C149.173 67.9442 148.565 66.2182 148.565 63.9433V54.8141H151.438V63.6141C151.438 65.1506 151.807 66.3179 152.545 67.1161C153.284 67.8943 154.341 68.2834 155.718 68.2834C157.235 68.2834 158.432 67.8245 159.31 66.9066C160.188 65.9887 160.627 64.6916 160.627 63.0154V54.8141H163.501Z" fill="#333333"/>
<path d="M168.971 54.8141H171.844V70.678H168.971V54.8141ZM170.408 51.7611C169.849 51.7611 169.38 51.5815 169.001 51.2223C168.642 50.8631 168.462 50.4241 168.462 49.9053C168.462 49.3865 168.642 48.9475 169.001 48.5883C169.38 48.2092 169.849 48.0196 170.408 48.0196C170.966 48.0196 171.425 48.1992 171.784 48.5584C172.164 48.8976 172.353 49.3266 172.353 49.8454C172.353 50.3842 172.164 50.8432 171.784 51.2223C171.425 51.5815 170.966 51.7611 170.408 51.7611Z" fill="#333333"/>
<path d="M192.297 48.4686V70.678H189.543V68.1637C188.904 69.0417 188.096 69.7102 187.118 70.1692C186.141 70.6281 185.063 70.8576 183.886 70.8576C182.349 70.8576 180.972 70.5184 179.755 69.8399C178.538 69.1614 177.58 68.2136 176.882 66.9964C176.203 65.7592 175.864 64.3424 175.864 62.7461C175.864 61.1497 176.203 59.7429 176.882 58.5257C177.58 57.3084 178.538 56.3606 179.755 55.6821C180.972 55.0037 182.349 54.6645 183.886 54.6645C185.023 54.6645 186.071 54.884 187.029 55.323C187.986 55.742 188.785 56.3706 189.423 57.2087V48.4686H192.297ZM184.125 68.3433C185.123 68.3433 186.031 68.1138 186.849 67.6549C187.667 67.176 188.306 66.5175 188.765 65.6794C189.224 64.8213 189.453 63.8436 189.453 62.7461C189.453 61.6486 189.224 60.6808 188.765 59.8427C188.306 58.9846 187.667 58.3261 186.849 57.8672C186.031 57.4082 185.123 57.1787 184.125 57.1787C183.108 57.1787 182.19 57.4082 181.371 57.8672C180.573 58.3261 179.935 58.9846 179.456 59.8427C178.997 60.6808 178.767 61.6486 178.767 62.7461C178.767 63.8436 178.997 64.8213 179.456 65.6794C179.935 66.5175 180.573 67.176 181.371 67.6549C182.19 68.1138 183.108 68.3433 184.125 68.3433Z" fill="#333333"/>
<path d="M197.733 48.4686H200.607V70.678H197.733V48.4686Z" fill="#333333"/>
<path d="M220.431 62.8359C220.431 63.0554 220.411 63.3447 220.371 63.7039H207.5C207.68 65.1007 208.288 66.2281 209.326 67.0862C210.384 67.9243 211.691 68.3433 213.247 68.3433C215.143 68.3433 216.669 67.7048 217.827 66.4277L219.413 68.2834C218.695 69.1215 217.797 69.7601 216.719 70.1991C215.661 70.6381 214.474 70.8576 213.157 70.8576C211.481 70.8576 209.994 70.5184 208.697 69.8399C207.4 69.1415 206.393 68.1737 205.674 66.9365C204.976 65.6993 204.627 64.3025 204.627 62.7461C204.627 61.2096 204.966 59.8227 205.644 58.5855C206.343 57.3483 207.291 56.3905 208.488 55.7121C209.705 55.0137 211.072 54.6645 212.588 54.6645C214.105 54.6645 215.452 55.0137 216.629 55.7121C217.827 56.3905 218.754 57.3483 219.413 58.5855C220.091 59.8227 220.431 61.2395 220.431 62.8359ZM212.588 57.0889C211.212 57.0889 210.054 57.508 209.116 58.3461C208.198 59.1842 207.66 60.2817 207.5 61.6386H217.677C217.517 60.3016 216.969 59.2141 216.031 58.376C215.113 57.518 213.965 57.0889 212.588 57.0889Z" fill="#333333"/>
<path d="M238.758 62.8359C238.758 63.0554 238.738 63.3447 238.698 63.7039H225.827C226.007 65.1007 226.616 66.2281 227.653 67.0862C228.711 67.9243 230.018 68.3433 231.574 68.3433C233.47 68.3433 234.997 67.7048 236.154 66.4277L237.74 68.2834C237.022 69.1215 236.124 69.7601 235.047 70.1991C233.989 70.6381 232.802 70.8576 231.485 70.8576C229.808 70.8576 228.322 70.5184 227.025 69.8399C225.728 69.1415 224.72 68.1737 224.002 66.9365C223.303 65.6993 222.954 64.3025 222.954 62.7461C222.954 61.2096 223.293 59.8227 223.972 58.5855C224.67 57.3483 225.618 56.3905 226.815 55.7121C228.032 55.0137 229.399 54.6645 230.916 54.6645C232.432 54.6645 233.779 55.0137 234.957 55.7121C236.154 56.3905 237.082 57.3483 237.74 58.5855C238.419 59.8227 238.758 61.2395 238.758 62.8359ZM230.916 57.0889C229.539 57.0889 228.382 57.508 227.444 58.3461C226.526 59.1842 225.987 60.2817 225.827 61.6386H236.004C235.845 60.3016 235.296 59.2141 234.358 58.376C233.44 57.518 232.293 57.0889 230.916 57.0889Z" fill="#333333"/>
<path fill-rule="evenodd" clip-rule="evenodd" d="M25.1697 33.5813C36.1652 27.1829 48.5135 23.4646 61.2139 22.7277L61.2184 22.7275L61.223 22.7272C64.9117 22.5211 68.5857 23.3376 71.84 25.0866C75.0943 26.8357 77.8024 29.4493 79.6658 32.6395L79.6676 32.6427C82.8615 38.1216 85.3967 43.9587 87.2204 50.0327C89.0088 55.9629 90.1081 62.0794 90.4966 68.2613C90.7389 72.0842 89.9062 75.8987 88.0927 79.2729C86.2799 82.6459 83.5594 85.4442 80.239 87.3515C74.8749 90.4501 69.1718 92.9203 63.2422 94.7134L63.2408 94.7138C57.1692 96.5476 50.9021 97.6572 44.57 98.0197L44.5646 98.02C40.8769 98.2264 37.2038 97.4108 33.95 95.6631C30.6962 93.9153 27.988 91.3033 26.1239 88.1148L26.1199 88.108C19.7139 77.1044 15.9924 64.7455 15.2574 52.0342L15.257 52.0264C15.0506 48.3387 15.8662 44.6656 17.6139 41.4118C19.3616 38.158 21.9736 35.4499 25.1622 33.5857L25.1659 33.5835L25.1697 33.5813ZM78.1098 83.6557L75.9866 79.9565C77.9282 78.8421 79.519 77.2064 80.5788 75.2345C81.6385 73.2626 82.125 71.0333 81.9831 68.7992L81.9829 68.7963C81.6355 63.2672 80.6522 57.7966 79.0524 52.4926L79.0508 52.4874C77.4207 47.0577 75.1546 41.8398 72.2998 36.942C72.2992 36.9409 72.2986 36.9399 72.298 36.9388C71.227 35.1065 69.671 33.6053 67.8016 32.6006C65.9323 31.5959 63.8221 31.1266 61.7033 31.2441C50.3437 31.9039 39.2992 35.2296 29.4641 40.952C27.6329 42.0234 26.1328 43.5793 25.1288 45.4484C24.1248 47.3176 23.656 49.4276 23.7739 51.5461C24.432 62.9156 27.7606 73.9699 33.4899 83.8124C34.5614 85.6438 36.1173 87.1441 37.9866 88.1481C39.856 89.1523 41.9663 89.6211 44.0851 89.503C49.7452 89.1788 55.3472 88.1868 60.7745 86.5477C66.0778 84.9438 71.1787 82.7342 75.9761 79.9626L78.1098 83.6557Z" fill="#999999"/>
<path fill-rule="evenodd" clip-rule="evenodd" d="M31.1739 35.2837C43.0231 30.6534 55.7964 28.8796 68.459 30.1059L68.4635 30.1063L68.468 30.1067C72.1446 30.4707 75.6492 31.8428 78.5956 34.0718C81.5419 36.3008 83.8156 39.3001 85.1659 42.739L85.1672 42.7424C87.48 48.6475 89.0867 54.8052 89.954 61.0875C90.8086 67.2223 90.9536 73.4352 90.3861 79.6032C90.0373 83.4178 88.6275 87.0587 86.3165 90.1137C84.0062 93.1675 80.8875 95.5139 77.3131 96.8875C71.5361 99.1238 65.5208 100.687 59.3859 101.546L59.3844 101.546C53.1029 102.424 46.7398 102.556 40.4273 101.94L40.4219 101.939C36.7464 101.576 33.2425 100.205 30.2965 97.9771C27.3504 95.7495 25.0764 92.7518 23.7251 89.3144L23.7222 89.3071C19.0858 77.4488 17.3104 64.6644 18.5402 51.9915L18.5409 51.9837C18.9045 48.3081 20.2756 44.8043 22.5032 41.8582C24.7308 38.9121 27.7284 36.6381 31.1658 35.2868L31.1699 35.2853L31.1739 35.2837ZM75.778 92.9081L74.2493 88.9263C76.3393 88.1239 78.1628 86.7524 79.5134 84.9671C80.864 83.1818 81.6877 81.054 81.8913 78.8246L81.8916 78.8217C82.3991 73.305 82.2693 67.7482 81.5047 62.2612L81.504 62.2558C80.7288 56.64 79.2927 51.1355 77.2256 45.8567C77.2251 45.8556 77.2247 45.8544 77.2242 45.8533C76.4479 43.878 75.1416 42.1553 73.4489 40.8748C71.7566 39.5945 69.7437 38.806 67.6321 38.5961C56.3063 37.5 44.8815 39.0866 34.283 43.2274C32.3087 44.0043 30.5871 45.3108 29.3075 47.0031C28.0277 48.6956 27.2398 50.7083 27.0303 52.8197C25.931 64.155 27.519 75.5899 31.6654 86.1968C32.4423 88.1712 33.7489 89.8931 35.4413 91.1728C37.134 92.4527 39.147 93.2406 41.2587 93.45C46.9013 94.0007 52.5892 93.8825 58.2041 93.0981C63.6911 92.3294 69.0712 90.931 74.238 88.9306L75.778 92.9081Z" fill="#666666"/>
<path fill-rule="evenodd" clip-rule="evenodd" d="M35.7196 38.8541C48.093 35.8978 60.9889 35.8978 73.3624 38.8541L73.3668 38.8552L73.3713 38.8562C76.9628 39.7225 80.2454 41.5636 82.8571 44.1767C85.4689 46.7897 87.3084 50.0732 88.1728 53.6652L88.1737 53.6688C89.6522 59.8359 90.3967 66.1561 90.3916 72.4979C90.3942 78.692 89.6832 84.8657 88.2728 90.897C87.4025 94.6275 85.5053 98.0398 82.796 100.748C80.0877 103.455 76.6758 105.35 72.9465 106.219C66.9169 107.639 60.7436 108.36 54.5489 108.367L54.5474 108.367C48.2049 108.373 41.884 107.628 35.7163 106.149L35.7111 106.148C32.1205 105.283 28.8386 103.443 26.2269 100.831C23.6152 98.2192 21.7752 94.9373 20.9096 91.3467L20.9077 91.339C17.9465 78.9557 17.9465 66.0486 20.9077 53.6653L20.9096 53.6577C21.7752 50.0671 23.6152 46.7851 26.2269 44.1735C28.8386 41.5618 32.1205 39.7218 35.7111 38.8561L35.7153 38.8551L35.7196 38.8541ZM71.9734 102.066L71.0069 97.9119C73.1874 97.4046 75.1822 96.297 76.7655 94.7144C78.3489 93.1318 79.4575 91.1375 79.9658 88.9574L79.9664 88.9545C81.2279 83.5601 81.8637 78.0383 81.8612 72.4983V72.4928C81.8658 66.8238 81.2005 61.174 79.8791 55.6611C79.8789 55.6599 79.8786 55.6587 79.8783 55.6575C79.3811 53.5943 78.3241 51.7082 76.8237 50.2071C75.3235 48.7061 73.4382 47.6483 71.3755 47.1499C60.3081 44.5064 48.7738 44.5064 37.7064 47.1499C35.6441 47.6479 33.759 48.7052 32.2588 50.2054C30.7585 51.7057 29.7012 53.5909 29.2032 55.6534C26.5552 66.7299 26.5552 78.2745 29.2032 89.3509C29.7012 91.4134 30.7585 93.2986 32.2588 94.799C33.7594 96.2995 35.6448 97.3569 37.7077 97.8547C43.2209 99.1763 48.871 99.8417 54.5404 99.837C60.081 99.8304 65.6023 99.1853 70.9952 97.9146L71.9734 102.066Z" fill="#333333"/>
</svg>
