<svg width="14" height="14" viewBox="0 0 14 14" fill="none" xmlns="http://www.w3.org/2000/svg">
<path d="M10.7123 3.28769C12.7626 5.33794 12.7626 8.66206 10.7123 10.7123C8.66205 12.7626 5.33793 12.7626 3.28769 10.7123C1.23744 8.66204 1.23744 5.33793 3.28769 3.28769C5.33794 1.23744 8.66206 1.23744 10.7123 3.28769Z" fill="#F2A32C"/>
<path d="M10.7123 3.28769C12.7626 5.33794 12.7626 8.66206 10.7123 10.7123C8.66204 12.7626 5.33793 12.7626 3.28769 10.7123C1.23744 8.66204 1.23744 5.33793 3.28769 3.28769C5.33794 1.23744 8.66206 1.23744 10.7123 3.28769" stroke="#F2A32C" stroke-linecap="round" stroke-linejoin="round"/>
<path d="M7.99485 8.94429H6.35743C5.99693 8.94429 5.7041 8.65204 5.7041 8.29095V7.02979H7.99485C8.51927 7.02979 8.9451 7.45504 8.9451 7.98004V7.99462C8.94452 8.51904 8.51927 8.94429 7.99485 8.94429V8.94429Z" stroke="white" stroke-linecap="round" stroke-linejoin="round"/>
<path d="M7.76444 7.02972H5.7041V5.71898C5.7041 5.35264 6.00102 5.05573 6.36735 5.05573H7.76444C8.29702 5.05573 8.72927 5.48739 8.72927 6.02056V6.06548C8.72927 6.59806 8.2976 7.02972 7.76444 7.02972Z" stroke="white" stroke-linecap="round" stroke-linejoin="round"/>
<path d="M6.35262 5.0575H5.05762" stroke="white" stroke-linecap="round" stroke-linejoin="round"/>
<path d="M6.35845 8.9425H5.05762" stroke="white" stroke-linecap="round" stroke-linejoin="round"/>
<path d="M7.71777 4.40997V5.05747" stroke="white" stroke-linecap="round" stroke-linejoin="round"/>
<path d="M6.125 4.40997V5.05747" stroke="white" stroke-linecap="round" stroke-linejoin="round"/>
<path d="M6.125 9.59001V8.9425" stroke="white" stroke-linecap="round" stroke-linejoin="round"/>
<path d="M7.71777 9.59001V8.9425" stroke="white" stroke-linecap="round" stroke-linejoin="round"/>
</svg>
