<svg width="24" height="24" viewBox="0 0 24 24" fill="none" xmlns="http://www.w3.org/2000/svg">
<path d="M15 14H9" stroke="#323232" stroke-width="1.5" stroke-linecap="round" stroke-linejoin="round"/>
<path d="M3 12.072V12.072C3 7.10146 7.02944 3.07202 12 3.07202C16.9706 3.07202 21 7.10146 21 12.072V12.072" stroke="#323232" stroke-width="1.5" stroke-linecap="round" stroke-linejoin="round"/>
<path d="M20.4486 15.147V15.147C20.0916 16.1336 19.5647 17.0501 18.8916 17.855" stroke="#323232" stroke-width="1.5" stroke-linecap="round" stroke-linejoin="round"/>
<path d="M5.10778 17.855H5.10778C4.43399 17.0506 3.90695 16.134 3.55078 15.147" stroke="#323232" stroke-width="1.5" stroke-linecap="round" stroke-linejoin="round"/>
<path d="M10.438 20.928V20.928C9.40375 20.7471 8.40931 20.386 7.5 19.861" stroke="#323232" stroke-width="1.5" stroke-linecap="round" stroke-linejoin="round"/>
<path d="M13.5605 20.928V20.928C14.5951 20.7471 15.5899 20.386 16.4995 19.861" stroke="#323232" stroke-width="1.5" stroke-linecap="round" stroke-linejoin="round"/>
<path d="M9 10H15" stroke="#323232" stroke-width="1.5" stroke-linecap="round" stroke-linejoin="round"/>
</svg>
