<svg width="20" height="20" viewBox="0 0 20 20" fill="none" xmlns="http://www.w3.org/2000/svg">
<path d="M2.5 15.0001C2.5 13.1592 3.9925 11.6667 5.83333 11.6667H9.16667C11.0075 11.6667 12.5 13.1592 12.5 15.0001" stroke="#999999" stroke-linecap="round" stroke-linejoin="round"/>
<path d="M13.332 3.87585C14.4829 3.87585 15.4154 4.80835 15.4154 5.95919C15.4154 7.11002 14.4829 8.04252 13.332 8.04252" stroke="#999999" stroke-linecap="round" stroke-linejoin="round"/>
<path d="M9.50424 4.16336C10.611 5.27017 10.611 7.06467 9.50424 8.17148C8.39743 9.27828 6.60293 9.27828 5.49612 8.17148C4.38931 7.06467 4.38931 5.27017 5.49612 4.16336C6.60293 3.05655 8.39743 3.05655 9.50424 4.16336" stroke="#999999" stroke-linecap="round" stroke-linejoin="round"/>
<path d="M14.168 10.8333C16.0088 10.8333 17.5013 12.3258 17.5013 14.1666" stroke="#999999" stroke-linecap="round" stroke-linejoin="round"/>
</svg>
