<svg width="24" height="24" viewBox="0 0 24 24" fill="none" xmlns="http://www.w3.org/2000/svg">
<path d="M14.9 21H11V21C6.58172 21 3 17.4183 3 13V13V11V11C3 6.58172 6.58172 3 11 3H13H13C17.4183 3 21 6.58172 21 11V11V13.5V13.5C21 15.1568 19.6568 16.5 18 16.5H17.9V16.5C16.2431 16.5 14.9 15.1568 14.9 13.5V13.5V11.775" stroke="#323232" stroke-width="1.5" stroke-linecap="round" stroke-linejoin="round"/>
<path d="M9.27461 8.456L9.57461 8.156V8.156C9.99626 7.73579 10.5673 7.49988 11.1626 7.5H12.6496V7.5C13.8922 7.5 14.8996 8.50736 14.8996 9.75V9.75V14.25V14.25C14.8996 15.4926 13.8922 16.5 12.6496 16.5V16.5H10.9616V16.5C9.65734 16.4994 8.60016 15.4423 8.59961 14.138V14.1382C8.60006 12.8339 9.65716 11.7767 10.9614 11.776H14.8996" stroke="#323232" stroke-width="1.5" stroke-linecap="round" stroke-linejoin="round"/>
</svg>
