<svg width="24" height="24" viewBox="0 0 24 24" fill="none" xmlns="http://www.w3.org/2000/svg">
<path d="M16 21H8C5.239 21 3 18.761 3 16V8C3 5.239 5.239 3 8 3H16C18.761 3 21 5.239 21 8V16C21 18.761 18.761 21 16 21Z" stroke="#323232" stroke-width="1.5" stroke-linecap="round" stroke-linejoin="round"/>
<path d="M11.999 8C11.861 8 11.749 8.112 11.75 8.25C11.75 8.388 11.862 8.5 12 8.5C12.138 8.5 12.25 8.388 12.25 8.25C12.25 8.112 12.138 8 11.999 8Z" stroke="#323232" stroke-width="1.5" stroke-linecap="round" stroke-linejoin="round"/>
<path d="M12.25 16.1841V11.4341H11.25" stroke="#323232" stroke-width="1.5" stroke-linecap="round" stroke-linejoin="round"/>
</svg>
