<svg width="24" height="24" viewBox="0 0 24 24" fill="none" xmlns="http://www.w3.org/2000/svg">
<path d="M18.293 20.7068L21.707 17.2928C22.098 16.9018 22.098 16.2688 21.707 15.8788L20.121 14.2928C19.73 13.9018 19.097 13.9018 18.707 14.2928L15.293 17.7068C15.105 17.8948 15 18.1488 15 18.4138V20.9998H17.586C17.851 20.9998 18.105 20.8948 18.293 20.7068V20.7068Z" stroke="#323232" stroke-width="1.5" stroke-linecap="round" stroke-linejoin="round"/>
<path d="M7 14H11" stroke="#323232" stroke-width="1.5" stroke-linecap="round" stroke-linejoin="round"/>
<path d="M7 9H15" stroke="#323232" stroke-width="1.5" stroke-linecap="round" stroke-linejoin="round"/>
<path d="M19 10V7C19 5.343 17.657 4 16 4H6C4.343 4 3 5.343 3 7V16C3 17.657 4.343 19 6 19H11" stroke="#323232" stroke-width="1.5" stroke-linecap="round" stroke-linejoin="round"/>
</svg>
