<svg width="104" height="104" viewBox="0 0 104 104" fill="none" xmlns="http://www.w3.org/2000/svg">
<path d="M52 23.8335V34.6668" stroke="#323232" stroke-width="3" stroke-linecap="round" stroke-linejoin="round"/>
<path d="M41.1648 47.6668V39.0002C41.1214 36.5735 43.0714 34.6235 45.4548 34.6235H58.4548H58.4114C60.7948 34.5802 62.7448 36.5302 62.7448 38.9135V47.5802" stroke="#323232" stroke-width="3" stroke-linecap="round" stroke-linejoin="round"/>
<path d="M30.3366 86.6666V52C30.2933 49.5733 32.2433 47.6233 34.6266 47.6233H62.7933" stroke="#323232" stroke-width="3" stroke-linecap="round" stroke-linejoin="round"/>
<path d="M41.1641 60.6665H56.3307" stroke="#323232" stroke-width="3" stroke-linecap="round" stroke-linejoin="round"/>
<path d="M41.1641 73.6665H51.9974" stroke="#323232" stroke-width="3" stroke-linecap="round" stroke-linejoin="round"/>
<path d="M47.6692 86.6668H30.3358L30.2925 86.6625C20.7158 86.6191 12.9592 78.8625 12.9592 69.2858V69.2815V25.9481C12.9158 16.3715 20.7158 8.57147 30.2492 8.57147H73.5825H73.5392C83.0725 8.52814 90.8725 16.3281 90.8725 25.8615V43.1948" stroke="#323232" stroke-width="3" stroke-linecap="round" stroke-linejoin="round"/>
<path d="M93.1661 95.3332H64.9994H64.9561C63.7428 95.2899 62.7894 94.3366 62.7894 93.1232V91.3466H62.7461C62.7461 86.3199 66.7761 82.2466 71.8028 82.2466H86.1461C91.1294 82.2466 95.2028 86.2766 95.2028 91.3032V93.0366H95.1984C95.1984 94.2066 94.2018 95.2032 93.0318 95.2032H93.0274L93.1661 95.3332Z" stroke="#323232" stroke-width="3" stroke-linecap="round" stroke-linejoin="round"/>
<path d="M79.083 71.4999L79.0397 71.4956C74.2297 71.4522 70.373 67.5956 70.373 62.7856C70.373 57.9756 74.2297 54.1189 79.0397 54.1189C83.8064 54.1189 87.663 57.9756 87.663 62.7856C87.6197 67.5522 83.763 71.4089 78.9964 71.4089L79.083 71.4999Z" stroke="#323232" stroke-width="3" stroke-linecap="round" stroke-linejoin="round"/>
</svg>
