<svg width="24" height="24" viewBox="0 0 24 24" fill="none" xmlns="http://www.w3.org/2000/svg">
<path d="M12.9438 9.69701C13.9398 10.693 13.9398 12.307 12.9438 13.303C11.9478 14.299 10.3338 14.299 9.33782 13.303C8.34182 12.307 8.34182 10.693 9.33782 9.69701C10.3328 8.70101 11.9478 8.70101 12.9438 9.69701Z" stroke="#323232" stroke-width="1.5" stroke-linecap="round" stroke-linejoin="round"/>
<path d="M17.5163 11.5C17.5163 11.219 17.4913 10.939 17.4573 10.667L18.9573 9.494C19.2893 9.233 19.3803 8.768 19.1693 8.402L17.8353 6.095C17.6243 5.73 17.1773 5.576 16.7853 5.732L15.4453 6.27C15.1793 6.377 14.8823 6.332 14.6423 6.174C14.4343 6.037 14.2203 5.912 13.9983 5.8C13.7423 5.672 13.5553 5.438 13.5143 5.155L13.3103 3.727C13.2513 3.31 12.8933 3 12.4713 3H9.81131C9.39031 3 9.03231 3.31 8.97231 3.727L8.76631 5.157C8.72631 5.439 8.54031 5.672 8.28631 5.801C8.06331 5.915 7.84731 6.042 7.64031 6.179C7.40131 6.336 7.10531 6.378 6.84031 6.272L5.49831 5.732C5.10631 5.575 4.65831 5.729 4.44831 6.095L3.11431 8.402C2.90231 8.768 2.99331 9.234 3.32531 9.494L4.82531 10.667C4.79131 10.939 4.76531 11.219 4.76531 11.5C4.76531 11.78 4.79031 12.061 4.82531 12.333L3.32531 13.506C2.99331 13.767 2.90231 14.232 3.11331 14.598L4.44731 16.905C4.65831 17.27 5.10531 17.424 5.49731 17.268L6.84031 16.729C7.10531 16.622 7.40131 16.665 7.63931 16.823C7.84731 16.961 8.06231 17.087 8.28531 17.201C8.54031 17.33 8.72531 17.562 8.76631 17.845L8.97131 19.274C9.03131 19.69 9.38931 20 9.81031 20H11.1413" stroke="#323232" stroke-width="1.5" stroke-linecap="round" stroke-linejoin="round"/>
<path d="M15 16H21" stroke="#323232" stroke-width="1.5" stroke-linecap="round" stroke-linejoin="round"/>
<path d="M15 18.5H21" stroke="#323232" stroke-width="1.5" stroke-linecap="round" stroke-linejoin="round"/>
<path d="M15 21H21" stroke="#323232" stroke-width="1.5" stroke-linecap="round" stroke-linejoin="round"/>
</svg>
