<svg width="24" height="24" viewBox="0 0 24 24" fill="none" xmlns="http://www.w3.org/2000/svg">
<path d="M0 12C0 18.6274 5.37258 24 12 24C18.6274 24 24 18.6274 24 12C24 5.37258 18.6274 0 12 0C5.37258 0 0 5.37258 0 12Z" fill="#A5CFF3"/>
<path d="M14.986 10.577L12.467 8.81399C12.187 8.61799 11.813 8.61799 11.533 8.81399L9.01497 10.576C8.79697 10.728 8.66797 10.978 8.66797 11.243V14.517C8.66797 14.967 9.03297 15.332 9.48297 15.332H14.52C14.97 15.332 15.335 14.967 15.335 14.517V11.243C15.333 10.978 15.204 10.729 14.986 10.577V10.577Z" stroke="white" stroke-width="1.5" stroke-linecap="round" stroke-linejoin="round"/>
</svg>
