<svg width="772" height="743" viewBox="0 0 772 743" fill="none" xmlns="http://www.w3.org/2000/svg">
<path d="M1.11882 371.5V371.479L1.11714 371.459C-1.85496 335.285 6.11175 309.421 20.6036 289.925C35.106 270.416 56.181 257.233 79.5226 246.501C91.1914 241.137 103.415 236.389 115.656 231.77C118.027 230.876 120.399 229.986 122.767 229.097C132.622 225.399 142.42 221.723 151.863 217.816C175.283 208.127 196.607 196.989 211.368 180.476C228.415 161.406 241.889 140.597 254.226 120.133C257.38 114.9 260.459 109.692 263.504 104.542C272.376 89.5342 280.96 75.0148 290.276 61.8076C302.783 44.0766 316.581 28.7558 334.1 17.865C351.612 6.97848 372.872 0.5 400.334 0.5C605.324 0.5 771.5 166.603 771.5 371.5C771.5 420.541 749.366 453.04 719.372 481.612C706.614 493.765 692.444 505.197 677.95 516.89C675.397 518.95 672.833 521.019 670.266 523.101C653.132 536.992 635.825 551.477 620.165 568.122C603.515 585.82 588.203 605.348 573.011 624.723L572.145 625.827C556.663 645.571 541.281 665.116 524.687 682.408C491.507 716.984 453.528 742.5 400.334 742.5C195.297 742.5 1.11882 576.352 1.11882 371.5Z" stroke="white"/>
<path d="M57.0499 383.5V383.48L57.0482 383.459C54.4081 351.289 61.485 328.292 74.3532 310.961C87.232 293.615 105.949 281.892 126.687 272.347C137.054 267.575 147.915 263.352 158.792 259.243C160.898 258.447 163.005 257.656 165.11 256.865C173.867 253.575 182.574 250.304 190.967 246.828C211.78 238.208 230.738 228.295 243.864 213.594C259.015 196.625 270.99 178.11 281.953 159.903C284.757 155.247 287.493 150.613 290.199 146.031C298.083 132.68 305.709 119.765 313.985 108.018C325.097 92.2469 337.352 78.6235 352.911 68.94C368.463 59.261 387.344 53.5 411.738 53.5C593.86 53.5 741.5 201.246 741.5 383.5C741.5 427.108 721.843 456.008 695.196 481.42C683.861 492.23 671.272 502.398 658.393 512.801C656.124 514.634 653.846 516.474 651.563 518.327C636.338 530.685 620.956 543.573 607.038 558.385C592.242 574.131 578.635 591.505 565.136 608.74L564.365 609.725C550.607 627.29 536.941 644.676 522.197 660.057C492.719 690.811 458.984 713.5 411.738 713.5C229.567 713.5 57.0499 565.709 57.0499 383.5Z" stroke="white"/>
<path d="M112.955 379.5V379.479L112.954 379.459C110.769 352.854 116.625 333.846 127.265 319.523C137.916 305.186 153.399 295.492 170.564 287.595C179.145 283.648 188.135 280.154 197.141 276.754C198.885 276.095 200.629 275.44 202.371 274.786C209.622 272.064 216.834 269.356 223.784 266.479C241.019 259.344 256.732 251.135 267.613 238.955C280.164 224.906 290.082 209.578 299.16 194.51C301.482 190.656 303.749 186.82 305.989 183.027C312.517 171.98 318.828 161.297 325.679 151.579C334.876 138.533 345.015 127.269 357.884 119.264C370.746 111.264 386.364 106.5 406.547 106.5C557.294 106.5 679.5 228.726 679.5 379.5C679.5 415.555 663.241 439.449 641.188 460.469C631.805 469.413 621.384 477.825 610.72 486.434C608.842 487.951 606.955 489.474 605.065 491.007C592.459 501.234 579.719 511.902 568.191 524.164C555.937 537.198 544.668 551.578 533.491 565.84L532.852 566.656C521.461 581.192 510.148 595.576 497.944 608.301C473.544 633.742 445.633 652.5 406.547 652.5C255.751 652.5 112.955 530.228 112.955 379.5Z" stroke="white"/>
<path d="M168.845 367.5V367.48L168.844 367.459C167.188 347.299 171.627 332.907 179.68 322.068C187.744 311.215 199.471 303.871 212.489 297.883C218.996 294.89 225.814 292.241 232.648 289.661C233.97 289.162 235.294 288.665 236.616 288.169C242.118 286.103 247.592 284.048 252.868 281.864C265.949 276.45 277.894 270.213 286.17 260.951C295.701 250.284 303.232 238.647 310.121 227.213C311.884 224.287 313.605 221.376 315.306 218.497C320.258 210.117 325.043 202.018 330.239 194.65C337.213 184.758 344.896 176.227 354.641 170.166C364.38 164.109 376.208 160.5 391.503 160.5C505.824 160.5 598.5 253.177 598.5 367.5C598.5 394.809 586.187 412.908 569.466 428.843C562.35 435.624 554.448 442.003 546.356 448.534C544.93 449.685 543.498 450.841 542.063 452.005C532.497 459.764 522.825 467.862 514.071 477.172C504.769 487.064 496.215 497.978 487.736 508.797L487.249 509.418C478.604 520.447 470.024 531.355 460.768 541.004C442.266 560.293 421.116 574.5 391.503 574.5C277.134 574.5 168.845 481.777 168.845 367.5Z" stroke="white"/>
</svg>
