<svg width="25" height="24" viewBox="0 0 25 24" fill="none" xmlns="http://www.w3.org/2000/svg">
<path d="M4.02054 19C4.01835 18.4769 4.11921 17.9585 4.31737 17.4744C4.51552 16.9903 4.80709 16.5499 5.17543 16.1785C5.54376 15.807 5.98165 15.5118 6.46409 15.3096C6.94653 15.1074 7.46408 15.0022 7.98717 15C7.99829 15 8.00941 15 8.02054 15H10.3316" stroke="#323232" stroke-width="1.5" stroke-linecap="round" stroke-linejoin="round"/>
<path fill-rule="evenodd" clip-rule="evenodd" d="M13.0209 16.4904C13.0693 17.4911 13.4683 18.4428 14.1479 19.1788C14.6906 19.8093 15.3383 20.3412 16.0623 20.7511C16.3717 20.9237 16.7221 21.0093 17.0763 20.9989C17.4304 20.9885 17.7752 20.8823 18.0739 20.6918C18.7301 20.2723 19.3201 19.7574 19.8245 19.164C20.5166 18.4354 20.9388 17.492 21.0209 16.4904C21.0256 15.8946 20.8029 15.3193 20.398 14.8821C20.2055 14.6724 19.9719 14.5045 19.7117 14.3889C19.4516 14.2733 19.1704 14.2124 18.8858 14.2101C18.5303 14.1853 18.1742 14.2505 17.8507 14.3998C17.5271 14.5491 17.2464 14.7777 17.0346 15.0643L17.021 15.0843L17.0071 15.0643C16.8142 14.7929 16.5576 14.573 16.2598 14.4241C15.9621 14.2751 15.6322 14.2017 15.2994 14.2101C14.9986 14.205 14.6999 14.2605 14.421 14.3733C14.1422 14.4861 13.8889 14.6539 13.6762 14.8667C13.4636 15.0795 13.296 15.333 13.1834 15.6119C13.0708 15.8909 13.0155 16.1897 13.0209 16.4904V16.4904Z" stroke="#D22B71" stroke-width="1.5" stroke-linecap="round" stroke-linejoin="round"/>
<path d="M12.0205 11.5C14.3677 11.5 16.2705 9.59721 16.2705 7.25C16.2705 4.90279 14.3677 3 12.0205 3C9.6733 3 7.77051 4.90279 7.77051 7.25C7.77051 9.59721 9.6733 11.5 12.0205 11.5Z" stroke="#323232" stroke-width="1.5" stroke-linecap="round" stroke-linejoin="round"/>
</svg>
