<svg width="46" height="46" viewBox="0 0 46 46" fill="none" xmlns="http://www.w3.org/2000/svg">
<rect x="0.5" y="0.5" width="45" height="45" rx="22.5" fill="#CDCDCD" stroke="#EDEDED"/>
<path fill-rule="evenodd" clip-rule="evenodd" d="M21 1C9.95431 1 1 9.9543 1 21V25C1 34.4583 7.56556 42.3831 16.3878 44.4656C17.764 44.7904 18.9259 43.5622 18.9259 42.1482C18.9259 38.6866 19.8444 35.4396 21.451 32.6376C21.81 32.0116 21.2772 31.1481 20.5556 31.1481C14.2554 31.1481 9.14815 26.0409 9.14815 19.7407C9.14815 13.4406 14.2554 8.33333 20.5556 8.33333C26.8557 8.33333 31.963 13.4406 31.963 19.7407C31.963 21.4767 33.8534 23.386 35.5748 23.1616C36.3928 23.055 37.227 23 38.0741 23C39.3647 23 40.6255 23.1277 41.8445 23.3711C43.3978 23.6813 45 22.5839 45 21C45 9.95431 36.0457 1 25 1H21Z" fill="#EDEDED"/>
</svg>
