<svg width="20" height="20" viewBox="0 0 20 20" fill="none" xmlns="http://www.w3.org/2000/svg">
<path d="M17.7708 7.33999C17.1391 7.33999 16.5833 7.60582 16.1741 8.01999C14.6699 6.96332 12.6416 6.28332 10.3941 6.21082L11.5616 0.872499L15.2791 1.71916C15.2791 2.6425 16.0208 3.39666 16.9308 3.39666C17.8583 3.39666 18.6041 2.6225 18.6041 1.69833C18.6041 0.774166 17.8633 0 16.9316 0C16.2824 0 15.7224 0.397499 15.4433 0.940832L11.3375 0.0175C11.1308 -0.0383333 10.9283 0.111666 10.8733 0.321666L9.59162 6.20666C7.36162 6.30082 5.35496 6.97999 3.8458 8.03749C3.43663 7.60582 2.85913 7.33999 2.22747 7.33999C-0.115865 7.33999 -0.883363 10.5308 1.26247 11.6216C1.18663 11.9591 1.15247 12.3191 1.15247 12.6783C1.15247 16.2625 5.13163 19.1666 10.0175 19.1666C14.9241 19.1666 18.9033 16.2625 18.9033 12.6783C18.9033 12.3191 18.8658 11.9425 18.7733 11.6041C20.8758 10.5092 20.1016 7.34166 17.7708 7.33999ZM4.66746 11.8483C4.66746 10.9075 5.40913 10.15 6.34079 10.15C7.25079 10.15 7.99329 10.9025 7.99329 11.8483C7.99329 12.7725 7.25162 13.5258 6.34079 13.5258C5.41329 13.53 4.66746 12.7725 4.66746 11.8483ZM13.6999 15.8466C12.1658 17.4033 7.83662 17.4033 6.30163 15.8466C6.13246 15.6966 6.13246 15.4316 6.30163 15.2608C6.44913 15.1108 6.71079 15.1108 6.85829 15.2608C8.02996 16.48 11.9166 16.5008 13.1391 15.2608C13.2866 15.1108 13.5483 15.1108 13.6958 15.2608C13.8683 15.4325 13.8683 15.6975 13.6999 15.8466ZM13.6658 13.5291C12.7558 13.5291 12.0141 12.7766 12.0141 11.8533C12.0141 10.9125 12.7558 10.155 13.6658 10.155C14.5933 10.155 15.3391 10.9075 15.3391 11.8533C15.3349 12.7725 14.5933 13.5291 13.6658 13.5291Z" fill="black"/>
</svg>
