<svg width="16" height="16" viewBox="0 0 16 16" fill="none" xmlns="http://www.w3.org/2000/svg">
<path d="M9.04886 2.09667C8.70753 2.03733 8.3582 2 7.99953 2C7.64086 2 7.29153 2.03733 6.9502 2.09667" stroke="#999999" stroke-linecap="round" stroke-linejoin="round"/>
<path d="M13.6787 5.98206C13.914 6.62806 14.0487 7.32206 14.0487 8.04872" stroke="#999999" stroke-linecap="round" stroke-linejoin="round"/>
<path d="M12.6325 4.16197C12.1805 3.62397 11.6345 3.16864 11.0225 2.81464" stroke="#999999" stroke-linecap="round" stroke-linejoin="round"/>
<path d="M4.97914 2.81464C4.36714 3.16864 3.82181 3.62397 3.36914 4.16197" stroke="#999999" stroke-linecap="round" stroke-linejoin="round"/>
<path d="M1.95117 8.04872C1.95117 7.32139 2.08584 6.62739 2.32117 5.98206" stroke="#999999" stroke-linecap="round" stroke-linejoin="round"/>
<path d="M4.97852 13.2827C5.57852 13.63 6.24318 13.876 6.95118 14" stroke="#999999" stroke-linecap="round" stroke-linejoin="round"/>
<path d="M2.32227 10.1154C2.56627 10.7847 2.9196 11.4 3.36893 11.9354" stroke="#999999" stroke-linecap="round" stroke-linejoin="round"/>
<path d="M9.04883 14C9.75683 13.876 10.4208 13.63 11.0215 13.2827" stroke="#999999" stroke-linecap="round" stroke-linejoin="round"/>
<path d="M12.6318 11.9354C13.0812 11.4 13.4345 10.7847 13.6785 10.1154" stroke="#999999" stroke-linecap="round" stroke-linejoin="round"/>
<path d="M9.99032 7.05129L8.31099 5.87595C8.12432 5.74529 7.87499 5.74529 7.68832 5.87595L6.00965 7.05062C5.86432 7.15195 5.77832 7.31862 5.77832 7.49529V9.67795C5.77832 9.97795 6.02165 10.2213 6.32165 10.2213H9.67965C9.97966 10.2213 10.223 9.97795 10.223 9.67795V7.49529C10.2217 7.31862 10.1357 7.15262 9.99032 7.05129V7.05129Z" stroke="#999999" stroke-linecap="round" stroke-linejoin="round"/>
</svg>
