<svg width="24" height="24" viewBox="0 0 24 24" fill="none" xmlns="http://www.w3.org/2000/svg">
<path d="M14.251 10V8C14.251 7.73478 14.1456 7.48043 13.9581 7.29289C13.7705 7.10536 13.5162 7 13.251 7H10.751C10.4858 7 10.2314 7.10536 10.0439 7.29289C9.85633 7.48043 9.75098 7.73478 9.75098 8V10" stroke="#323232" stroke-width="1.5" stroke-linecap="round" stroke-linejoin="round"/>
<path d="M15.501 10H8.50098C7.67255 10 7.00098 10.6716 7.00098 11.5V15.5C7.00098 16.3284 7.67255 17 8.50098 17H15.501C16.3294 17 17.001 16.3284 17.001 15.5V11.5C17.001 10.6716 16.3294 10 15.501 10Z" stroke="#323232" stroke-width="1.5" stroke-linecap="round" stroke-linejoin="round"/>
<path d="M16.001 3H8.00098C5.23955 3 3.00098 5.23858 3.00098 8V16C3.00098 18.7614 5.23955 21 8.00098 21H16.001C18.7624 21 21.001 18.7614 21.001 16V8C21.001 5.23858 18.7624 3 16.001 3Z" stroke="#323232" stroke-width="1.5" stroke-linecap="round" stroke-linejoin="round"/>
</svg>
