<svg width="104" height="104" viewBox="0 0 104 104" fill="none" xmlns="http://www.w3.org/2000/svg">
<path d="M49.8314 86.6667H22.2083C20.6241 86.6667 19.0943 86.0881 17.9066 85.0396C16.7189 83.9911 15.955 82.5449 15.7585 80.9729L13.0502 59.3062C12.9359 58.3917 13.0174 57.4633 13.2892 56.5826C13.5611 55.702 14.0171 54.8892 14.6271 54.1983C15.2371 53.5073 15.987 52.954 16.8271 52.575C17.6672 52.196 18.5784 52 19.5 52H47.1231C48.7074 52 50.2372 52.5786 51.4249 53.6272C52.6126 54.6757 53.3765 56.1219 53.5729 57.694L56.2813 79.3607C56.3955 80.2752 56.314 81.2036 56.0422 82.0842C55.7703 82.9648 55.3142 83.7775 54.7043 84.4685C54.0943 85.1594 53.3444 85.7127 52.5043 86.0917C51.6642 86.4707 50.7531 86.6667 49.8314 86.6667Z" stroke="#323232" stroke-width="3" stroke-linecap="round" stroke-linejoin="round"/>
<path d="M76.7236 86.6667H48.9697" stroke="#323232" stroke-width="3" stroke-linecap="round" stroke-linejoin="round"/>
<path d="M62.8337 36.8333C69.4151 36.8333 74.7503 31.4981 74.7503 24.9167C74.7503 18.3353 69.4151 13 62.8337 13C56.2523 13 50.917 18.3353 50.917 24.9167C50.917 31.4981 56.2523 36.8333 62.8337 36.8333Z" stroke="#323232" stroke-width="3" stroke-linecap="round" stroke-linejoin="round"/>
<path d="M65 52H78C81.4478 52 84.7544 53.3696 87.1924 55.8076C89.6304 58.2456 91 61.5522 91 65V69.3333C91 70.4826 90.5435 71.5848 89.7308 72.3975C88.9181 73.2101 87.8159 73.6667 86.6667 73.6667H73.6667" stroke="#323232" stroke-width="3" stroke-linecap="round" stroke-linejoin="round"/>
</svg>
