<svg width="20" height="20" viewBox="0 0 20 20" fill="none" xmlns="http://www.w3.org/2000/svg">
<path d="M13.9596 18.3333C15.9156 18.3333 17.5013 16.7477 17.5013 14.7917C17.5013 12.8357 15.9156 11.25 13.9596 11.25C12.0036 11.25 10.418 12.8357 10.418 14.7917C10.418 16.7477 12.0036 18.3333 13.9596 18.3333Z" stroke="#999999" stroke-linecap="round" stroke-linejoin="round"/>
<path d="M15.1493 14.0905L13.6618 15.5771L12.7676 14.6855" stroke="#999999" stroke-linecap="round" stroke-linejoin="round"/>
<path d="M8.33333 12.5H5.83333C4.94928 12.5 4.10143 12.8512 3.47631 13.4763C2.85119 14.1014 2.5 14.9493 2.5 15.8333V16.6667" stroke="#999999" stroke-linecap="round" stroke-linejoin="round"/>
<path d="M9.16536 9.16667C11.0063 9.16667 12.4987 7.67428 12.4987 5.83333C12.4987 3.99238 11.0063 2.5 9.16536 2.5C7.32442 2.5 5.83203 3.99238 5.83203 5.83333C5.83203 7.67428 7.32442 9.16667 9.16536 9.16667Z" stroke="#999999" stroke-linecap="round" stroke-linejoin="round"/>
</svg>
