<svg width="20" height="20" viewBox="0 0 20 20" fill="none" xmlns="http://www.w3.org/2000/svg">
<path d="M8.71654 13.4441L9.60571 12.9766C9.85321 12.8466 10.149 12.8466 10.3965 12.9766L11.2857 13.4441C11.5724 13.595 11.919 13.57 12.1807 13.3791L12.5124 13.1383C12.774 12.9483 12.9049 12.6258 12.8507 12.3075L12.6807 11.3175C12.6332 11.0416 12.7249 10.7608 12.9249 10.565L13.644 9.86413C13.8757 9.63829 13.959 9.30079 13.859 8.99329L13.7324 8.60329C13.6324 8.29579 13.3665 8.07163 13.0465 8.02496L12.0524 7.88079C11.7757 7.84079 11.5365 7.66663 11.4124 7.41579L10.9674 6.51496C10.8249 6.22496 10.529 6.04163 10.2057 6.04163H9.79571C9.47238 6.04163 9.17654 6.22496 9.03404 6.51496L8.58988 7.41579C8.46571 7.66663 8.22654 7.84079 7.94988 7.88079L6.95571 8.02496C6.63571 8.07163 6.36988 8.29579 6.26988 8.60329L6.14321 8.99329C6.04321 9.30079 6.12654 9.63829 6.35821 9.86413L7.07738 10.565C7.27738 10.76 7.36904 11.0416 7.32154 11.3175L7.15154 12.3075C7.09654 12.6266 7.22821 12.9483 7.48988 13.1383L7.82154 13.3791C8.08321 13.5691 8.42988 13.5941 8.71654 13.4441V13.4441Z" stroke="#999999" stroke-linecap="round" stroke-linejoin="round"/>
<path d="M4.69687 4.69663C7.62604 1.76746 12.3744 1.76746 15.3035 4.69663C18.2327 7.6258 18.2327 12.3741 15.3035 15.3033C12.3744 18.2325 7.62604 18.2325 4.69687 15.3033C1.76771 12.3741 1.76771 7.6258 4.69687 4.69663" stroke="#999999" stroke-linecap="round" stroke-linejoin="round"/>
</svg>
