<svg width="24" height="24" viewBox="0 0 24 24" fill="none" xmlns="http://www.w3.org/2000/svg">
<path d="M10.4593 16.134L11.5263 15.573C11.8233 15.417 12.1783 15.417 12.4753 15.573L13.5423 16.134C13.8863 16.315 14.3023 16.285 14.6163 16.056L15.0143 15.767C15.3283 15.539 15.4853 15.152 15.4203 14.77L15.2163 13.582C15.1593 13.251 15.2693 12.914 15.5093 12.679L16.3723 11.838C16.6503 11.567 16.7503 11.162 16.6303 10.793L16.4783 10.325C16.3583 9.95598 16.0393 9.68698 15.6553 9.63098L14.4623 9.45798C14.1303 9.40998 13.8433 9.20098 13.6943 8.89998L13.1603 7.81898C12.9893 7.47098 12.6343 7.25098 12.2463 7.25098H11.7543C11.3663 7.25098 11.0113 7.47098 10.8403 7.81898L10.3073 8.89998C10.1583 9.20098 9.87127 9.40998 9.53927 9.45798L8.34627 9.63098C7.96227 9.68698 7.64327 9.95598 7.52327 10.325L7.37127 10.793C7.25127 11.162 7.35127 11.567 7.62927 11.838L8.49227 12.679C8.73227 12.913 8.84227 13.251 8.78527 13.582L8.58127 14.77C8.51527 15.153 8.67327 15.539 8.98727 15.767L9.38527 16.056C9.69927 16.284 10.1153 16.314 10.4593 16.134V16.134Z" stroke="#323232" stroke-width="1.3" stroke-linecap="round" stroke-linejoin="round"/>
<path d="M5.63625 5.63625C9.15125 2.12125 14.8493 2.12125 18.3643 5.63625C21.8793 9.15125 21.8793 14.8493 18.3643 18.3643C14.8493 21.8793 9.15125 21.8793 5.63625 18.3643C2.12125 14.8493 2.12125 9.15125 5.63625 5.63625" stroke="#323232" stroke-width="1.3" stroke-linecap="round" stroke-linejoin="round"/>
</svg>
