<svg width="18" height="18" viewBox="0 0 18 18" fill="none" xmlns="http://www.w3.org/2000/svg">
<path d="M5.79765 15.6218H5.79765C5.24685 15.9093 4.56726 15.6958 4.27976 15.145C4.16475 14.9247 4.12594 14.6725 4.1694 14.4278L4.77615 10.95L2.22165 8.50201C1.77201 8.07322 1.75511 7.36111 2.18391 6.91147C2.35891 6.72797 2.59078 6.60896 2.8419 6.57377L6.38865 6.06677L7.98989 2.87252C8.26579 2.31581 8.94075 2.08817 9.49745 2.36408C9.71799 2.47337 9.8966 2.65198 10.0059 2.87252L11.6071 6.06677L15.1539 6.57377C15.7692 6.66001 16.1981 7.22872 16.1119 7.84403C16.0767 8.09515 15.9577 8.32701 15.7741 8.50201L13.2196 10.95L13.8264 14.4285C13.935 15.0403 13.5272 15.6242 12.9154 15.7329C12.6707 15.7763 12.4185 15.7375 12.1981 15.6225L8.9979 13.9688L5.79765 15.6218Z" fill="#F2A32C"/>
</svg>
