<?xml version="1.0" standalone="no"?>
<!DOCTYPE svg PUBLIC "-//W3C//DTD SVG 20010904//EN"
 "http://www.w3.org/TR/2001/REC-SVG-20010904/DTD/svg10.dtd">
<svg version="1.0" xmlns="http://www.w3.org/2000/svg"
 width="1012.000000pt" height="1012.000000pt" viewBox="0 0 1012.000000 1012.000000"
 preserveAspectRatio="xMidYMid meet">
<metadata>
Created by potrace 1.14, written by Peter Selinger 2001-2017
</metadata>
<g transform="translate(0.000000,1012.000000) scale(0.100000,-0.100000)"
fill="#000000" stroke="none">
<path d="M5305 8153 c-382 -15 -789 -62 -1155 -134 -139 -27 -516 -121 -662
-165 -149 -44 -479 -161 -583 -206 -531 -232 -916 -706 -1034 -1274 -64 -313
-77 -1057 -26 -1548 9 -81 15 -240 15 -386 0 -544 49 -1016 156 -1519 71 -329
148 -526 289 -736 248 -370 617 -626 1055 -734 356 -87 790 -153 1200 -181
198 -14 687 -14 900 0 439 29 984 115 1295 205 548 159 998 591 1188 1140 36
105 91 339 126 540 45 257 61 343 80 435 27 128 38 256 53 573 34 751 -72
1569 -301 2327 -128 422 -244 692 -387 895 -99 142 -151 201 -259 297 -286
253 -627 403 -1007 442 -269 29 -658 41 -943 29z m255 -1373 c472 -40 944
-130 1126 -214 233 -108 421 -299 514 -523 53 -127 120 -421 165 -728 55 -372
73 -744 57 -1132 -7 -158 -21 -361 -31 -450 -18 -151 -22 -167 -59 -242 -111
-222 -266 -377 -487 -489 -143 -72 -524 -199 -815 -272 -374 -93 -737 -152
-1115 -181 -299 -22 -881 -11 -1115 22 -318 46 -611 255 -755 538 -123 244
-295 831 -386 1316 -39 212 -41 225 -35 365 17 407 124 1034 216 1254 93 222
282 414 514 522 177 81 654 173 1111 214 291 26 798 26 1095 0z"/>
</g>
</svg>
